<svg xmlns="http://www.w3.org/2000/svg" width="24" height="24" viewBox="0 0 24 24"><defs><style>.a{fill:none;}.b{fill:#ff5242;}</style></defs><g transform="translate(-716 -188)"><rect class="a" width="24" height="24" transform="translate(716 188)"/><path class="b" d="M3,4A2,2,0,0,0,1,6V17H3a3,3,0,0,0,6,0h6a3,3,0,0,0,6,0h2V12L20,8H17V4M10,6l4,4-4,4V11H4V9h6m7,.5h2.5L21.47,12H17M6,15.5A1.5,1.5,0,1,1,4.5,17,1.5,1.5,0,0,1,6,15.5m12,0A1.5,1.5,0,1,1,16.5,17,1.5,1.5,0,0,1,18,15.5Z" transform="translate(716 188)"/></g></svg>