<svg xmlns="http://www.w3.org/2000/svg" width="64" height="64" viewBox="0 0 64 64"><defs><style>.a{fill:#ffedeb;opacity:0.6;}.b{fill:none;}.c{fill:#ff5242;}</style></defs><g transform="translate(-804 -236)"><path class="a" d="M32,0A32,32,0,1,1,0,32,32,32,0,0,1,32,0Z" transform="translate(804 236)"/><g transform="translate(108 68)"><rect class="b" width="24" height="24" transform="translate(716 188)"/><path class="c" d="M22,17H18V10h4m1-2H17a1,1,0,0,0-1,1V19a1,1,0,0,0,1,1h6a1,1,0,0,0,1-1V9a1,1,0,0,0-1-1M4,6H22V4H4A2,2,0,0,0,2,6V17H0v3H14V17H4Z" transform="translate(716 188)"/></g></g></svg>