<svg xmlns="http://www.w3.org/2000/svg" width="64" height="64" viewBox="0 0 64 64"><defs><style>.a{fill:#fff4f3;}.b{fill:none;}.c{fill:#ff5242;}</style></defs><g transform="translate(-808 -240)"><path class="a" d="M32,0A32,32,0,1,1,0,32,32,32,0,0,1,32,0Z" transform="translate(808 240)"/><g transform="translate(112 72)"><rect class="b" width="24" height="24" transform="translate(716 188)"/><path class="c" d="M20,5H10.88L10,2H4A2,2,0,0,0,2,4V17a2,2,0,0,0,2,2h7l1,3h8a2,2,0,0,0,2-2V7a2,2,0,0,0-2-2M7.17,14.59a4.09,4.09,0,0,1,0-8.18A3.88,3.88,0,0,1,9.91,7.5l.09.04L8.75,8.72l-.06-.05a2.172,2.172,0,0,0-1.52-.59,2.42,2.42,0,0,0,0,4.84,2.049,2.049,0,0,0,2.12-1.46H7.08V9.91h3.95l.01.09a2.82,2.82,0,0,1,.05.59,3.78,3.78,0,0,1-3.92,4m6.03-1.71a9.25,9.25,0,0,0,1.19,1.7l-.54.53-.65-2.23m.77-.76H13l-.33-1.04h3.99a7.681,7.681,0,0,1-1.56,2.74,9.181,9.181,0,0,1-1.13-1.7M21,20a1,1,0,0,1-1,1H13l2-2-.81-2.77.92-.92L17.79,18l.71-.73-2.69-2.68a8.731,8.731,0,0,0,1.92-3.51H19V10.04H15.36V9H14.32v1.04H12.36L11.18,6H20a1,1,0,0,1,1,1Z" transform="translate(716 188)"/></g></g></svg>