<svg xmlns="http://www.w3.org/2000/svg" width="64" height="64" viewBox="0 0 64 64"><defs><style>.a{fill:#fff4f3;}.b{fill:none;}.c{fill:#ff5242;}</style></defs><g transform="translate(-804 -236)"><path class="a" d="M32,0A32,32,0,1,1,0,32,32,32,0,0,1,32,0Z" transform="translate(804 236)"/><g transform="translate(104 64)"><rect class="b" width="32" height="32" transform="translate(716 188)"/><path class="c" d="M20,12.667a2.667,2.667,0,1,1,2.667,2.667A2.667,2.667,0,0,1,20,12.667m-8,0a2.667,2.667,0,1,1,2.667,2.667A2.667,2.667,0,0,1,12,12.667m-8,0a2.667,2.667,0,1,1,2.667,2.667A2.667,2.667,0,0,1,4,12.667Z" transform="translate(717.333 191.333)"/></g></g></svg>