<svg xmlns="http://www.w3.org/2000/svg" width="64" height="64" viewBox="0 0 64 64"><defs><style>.a{fill:#fff4f3;}.b{fill:none;}.c{fill:#ff5242;}</style></defs><g transform="translate(-804 -236)"><path class="a" d="M32,0A32,32,0,1,1,0,32,32,32,0,0,1,32,0Z" transform="translate(804 236)"/><g transform="translate(108 68)"><rect class="b" width="24" height="24" transform="translate(716 188)"/><path class="c" d="M21,21V17a2,2,0,0,0-2-2H18V12a2,2,0,0,0-2-2H13V8H11v2H8a1.993,1.993,0,0,0-2,2v3H5a1.993,1.993,0,0,0-2,2v4H1v2H23V21M12,7a2,2,0,0,0,2-2,1.9,1.9,0,0,0-.29-1.03L12,1,10.28,3.97A2.007,2.007,0,0,0,12,7Z" transform="translate(716 188)"/></g></g></svg>