<svg xmlns="http://www.w3.org/2000/svg" width="64" height="64" viewBox="0 0 64 64"><defs><style>.a{fill:#fff4f3;}.b{fill:none;}.c{fill:#ff5242;}</style></defs><g transform="translate(-804 -236)"><path class="a" d="M32,0A32,32,0,1,1,0,32,32,32,0,0,1,32,0Z" transform="translate(804 236)"/><g transform="translate(108 68)"><rect class="b" width="24" height="24" transform="translate(716 188)"/><path class="c" d="M13,2v8h8a8,8,0,0,0-8-8m6.32,13.89A7.948,7.948,0,0,0,21,11H6.44L5.5,9H2v2H4.22s1.89,4.07,2.12,4.42A3.5,3.5,0,1,0,11.46,19h2.08a3.5,3.5,0,1,0,5.78-3.11M8,20a1.5,1.5,0,1,1,1.5-1.5A1.5,1.5,0,0,1,8,20m9,0a1.5,1.5,0,1,1,1.5-1.5A1.5,1.5,0,0,1,17,20Z" transform="translate(717 188)"/></g></g></svg>