<svg xmlns="http://www.w3.org/2000/svg" width="64" height="64" viewBox="0 0 64 64"><defs><style>.a{fill:#fff4f3;}.b{fill:none;}.c{fill:#ff5242;}</style></defs><g transform="translate(-804 -236)"><path class="a" d="M32,0A32,32,0,1,1,0,32,32,32,0,0,1,32,0Z" transform="translate(804 236)"/><g transform="translate(108 68)"><rect class="b" width="24" height="24" transform="translate(716 188)"/><path class="c" d="M8,11,9.5,6.5h9L20,11m-1.5,5A1.5,1.5,0,1,1,20,14.5,1.5,1.5,0,0,1,18.5,16m-9,0A1.5,1.5,0,1,1,11,14.5,1.5,1.5,0,0,1,9.5,16M19.92,6A1.5,1.5,0,0,0,18.5,5h-9A1.5,1.5,0,0,0,8.08,6L6,12v8a1,1,0,0,0,1,1H8a1,1,0,0,0,1-1V19H19v1a1,1,0,0,0,1,1h1a1,1,0,0,0,1-1V12L19.92,6m-5-3A1.5,1.5,0,0,0,13.5,2h-9A1.5,1.5,0,0,0,3.08,3L1,9v8a1,1,0,0,0,1,1H3a1,1,0,0,0,1-1V12.91A1.5,1.5,0,0,1,4.5,10h.07l.7-2H3L4.5,3.5H15.09Z" transform="translate(717 189)"/></g></g></svg>