<svg xmlns="http://www.w3.org/2000/svg" width="64" height="64" viewBox="0 0 64 64"><defs><style>.a{fill:#fff4f3;}.b{fill:none;}.c{fill:#ff5242;}</style></defs><g transform="translate(-808 -240)"><path class="a" d="M32,0A32,32,0,1,1,0,32,32,32,0,0,1,32,0Z" transform="translate(808 240)"/><g transform="translate(112 72)"><rect class="b" width="24" height="24" transform="translate(716 188)"/><path class="c" d="M9.8,17,5.9,11.6,20,2l2,3V8H19v3H16v3H13v3M9.7,18.7l-.5,2.8L7.6,22.7a2.067,2.067,0,0,1-2.8-.5L1.3,17.3a2.067,2.067,0,0,1,.5-2.8l3.3-2.3,4.6,6.5M4.6,15,3,16.1,6.5,21l1.6-1.2Z" transform="translate(716.043 187)"/></g></g></svg>