<svg xmlns="http://www.w3.org/2000/svg" width="64" height="64" viewBox="0 0 64 64"><defs><style>.a{fill:#fff4f3;}.b{fill:none;}.c{fill:#ff5242;}</style></defs><g transform="translate(-804 -236)"><path class="a" d="M32,0A32,32,0,1,1,0,32,32,32,0,0,1,32,0Z" transform="translate(804 236)"/><g transform="translate(108 68)"><rect class="b" width="24" height="24" transform="translate(716 188)"/><path class="c" d="M0,21V10L7.5,5,15,10V21H10V14H5v7H0M24,2V21H17V8.93l-1-.66V6H14v.93L10,4.27V2H24M21,14H19v2h2V14m0-4H19v2h2V10m0-4H19V8h2Z" transform="translate(716 189)"/></g></g></svg>