<svg xmlns="http://www.w3.org/2000/svg" width="64" height="64" viewBox="0 0 64 64"><defs><style>.a{fill:#fff4f3;}.b{fill:none;}.c{fill:#ff5242;}</style></defs><g transform="translate(-808 -240)"><path class="a" d="M32,0A32,32,0,1,1,0,32,32,32,0,0,1,32,0Z" transform="translate(808 240)"/><g transform="translate(112 72)"><rect class="b" width="24" height="24" transform="translate(716 188)"/><path class="c" d="M16.84,2.73a1.532,1.532,0,0,0-1.07.44L13.65,5.29l5.3,5.31,2.12-2.1a1.5,1.5,0,0,0,0-2.14L17.9,3.17a1.526,1.526,0,0,0-1.06-.44M12.94,6l-8.1,8.11,2.56.28.18,2.29,2.28.17.29,2.56,8.1-8.11m-14,3.74L2.5,21.73l6.7-1.79-.24-2.16-2.31-.17-.18-2.32" transform="translate(715.5 188.27)"/></g></g></svg>